# xmcd
#
# Track frame offsets: 
#        150
#        13328
#        35167
#        51819
#        80110
#        103874
#        122226
#        136354
#        159243
#        178945
#        205359
#        226012
#        241103
#        258916
#        272607
#        294022
#
# Disc length: 4151 seconds
#
# Revision: 6
# Processed by: cddbd v1.5.1PL0 Copyright (c) Steve Scherf et al.
# Submitted via: ExactAudioCopy v0.95a5
#
DISCID=e0103510
DTITLE=Various Artist - Your Song(CD-4)
DYEAR=2001
DGENRE=Other
TTITLE0=My Cherie Amour/Stevie Wonder
TTITLE1=Ramblin' Man/Allman Brothers BAnd
TTITLE2=Upside Down/Diana Ross
TTITLE3=Europe(live)/Santana
TTITLE4=Maggie May/Rod Stewart
TTITLE5=I Surrender/Rainbow
TTITLE6=All Or Nothing/Smallfaces
TTITLE7=Second Chance/38 Special
TTITLE8=Steppin'out/Joe Jackson
TTITLE9=Higher Love/Steve Winwood
TTITLE10=Just Once/Quincy Jones
TTITLE11=We've Only Just Begun/Paul Williams
TTITLE12=I've Never Been To Me/Sharlene
TTITLE13=Reach Out,I'll be There/Four Tops
TTITLE14=Now You're Not Here/Swing Out Sister
TTITLE15=Candle In The Wind/Elton John
EXTD=YEAR: 2001 ID3G:  12
EXTT0=
EXTT1=
EXTT2=
EXTT3=
EXTT4=
EXTT5=
EXTT6=
EXTT7=
EXTT8=
EXTT9=
EXTT10=
EXTT11=
EXTT12=
EXTT13=
EXTT14=
EXTT15=
PLAYORDER=
